<?xml version="1.0" standalone="no"?>
<!DOCTYPE svg PUBLIC "-//W3C//DTD SVG 20010904//EN"
 "http://www.w3.org/TR/2001/REC-SVG-20010904/DTD/svg10.dtd">
<svg version="1.0" xmlns="http://www.w3.org/2000/svg"
 width="1080.000000pt" height="1080.000000pt" viewBox="0 0 1080.000000 1080.000000"
 preserveAspectRatio="xMidYMid meet">

<g transform="translate(0.000000,1080.000000) scale(0.100000,-0.100000)"
fill="#000000" stroke="none">
<path d="M5085 9889 c-1403 -98 -2674 -847 -3449 -2031 -217 -332 -369 -647
-496 -1028 -115 -344 -181 -657 -215 -1020 -21 -217 -16 -732 9 -930 91 -720
322 -1357 702 -1938 367 -560 827 -1010 1406 -1373 161 -101 524 -284 700
-353 1072 -421 2244 -421 3316 0 286 112 683 328 945 515 985 704 1652 1780
1836 2965 69 443 69 965 0 1408 -218 1403 -1109 2638 -2374 3292 -735 380
-1560 551 -2380 493z m828 -976 c-7 -2 -19 -2 -25 0 -7 3 -2 5 12 5 14 0 19
-2 13 -5z m-130 -20 c-7 -2 -21 -2 -30 0 -10 3 -4 5 12 5 17 0 24 -2 18 -5z
m72 -13 c-27 -12 -35 -12 -35 0 0 6 12 10 28 9 24 0 25 -1 7 -9z m1161 -261
c19 -22 19 -22 -3 -10 -24 12 -39 31 -25 31 5 0 17 -10 28 -21z m-3181 -379
c3 -5 1 -10 -4 -10 -6 0 -11 5 -11 10 0 6 2 10 4 10 3 0 8 -4 11 -10z m-165
-236 c0 -8 -4 -12 -10 -9 -5 3 -10 10 -10 16 0 5 5 9 10 9 6 0 10 -7 10 -16z
m4556 -449 c-3 -19 -4 -19 -11 2 -4 13 -11 21 -15 18 -11 -7 -19 31 -12 57 5
21 6 21 13 2 7 -17 8 -16 9 6 2 17 5 10 11 -20 5 -25 8 -54 5 -65z m-2089
-687 c-3 -8 -6 -5 -6 6 -1 11 2 17 5 13 3 -3 4 -12 1 -19z m-6 -88 c18 0 28
-4 24 -10 -3 -5 -19 -10 -36 -10 -25 0 -29 3 -28 28 1 16 3 20 6 10 3 -12 14
-18 34 -18z m13 -76 c9 -3 16 -14 16 -23 0 -12 16 -22 51 -32 l50 -16 -5 22
c-6 23 16 41 35 29 17 -10 9 -46 -11 -51 -11 -3 -17 -9 -14 -14 3 -5 -1 -6 -9
-3 -8 3 -18 1 -22 -5 -3 -6 1 -11 9 -11 9 0 16 -4 16 -10 0 -5 -14 -10 -31
-10 -17 0 -28 4 -24 10 3 6 -1 10 -9 10 -9 0 -16 -7 -16 -15 0 -18 -72 -34
-78 -16 -2 6 -11 11 -19 11 -9 0 -13 6 -10 14 3 8 -1 20 -9 26 -18 16 -18 35
2 65 16 25 45 32 78 19z m531 -24 c17 -18 20 -19 36 -4 12 11 19 12 24 4 5 -8
22 -10 46 -7 44 6 63 -6 140 -85 25 -27 53 -48 62 -48 9 0 24 -13 34 -30 9
-16 23 -30 30 -30 18 0 16 -17 -2 -24 -8 -3 -15 -12 -15 -21 0 -9 7 -18 15
-21 8 -4 15 -13 15 -20 0 -8 6 -22 13 -30 27 -33 37 -42 49 -47 10 -4 9 -8 -2
-16 -20 -14 -40 -14 -40 2 0 28 -160 101 -180 81 -5 -5 0 -10 16 -10 14 -1 33
-9 43 -18 10 -9 22 -16 28 -16 18 0 65 -61 59 -76 -4 -9 15 -24 55 -45 34 -17
63 -39 66 -49 3 -10 16 -21 30 -25 39 -9 38 0 -2 23 -47 29 -44 42 10 42 44 0
71 -10 107 -38 9 -8 21 -11 27 -8 5 3 18 -5 29 -19 11 -14 29 -25 40 -25 24 0
88 -26 97 -39 3 -6 12 -8 20 -4 11 4 15 -3 15 -29 0 -29 4 -35 32 -43 17 -6
33 -17 34 -25 2 -8 8 -33 13 -55 15 -59 13 -230 -4 -309 -8 -38 -17 -71 -19
-74 -8 -8 -61 61 -58 75 2 7 -3 13 -10 13 -7 0 -18 8 -25 19 -20 32 -105 75
-153 77 -126 6 -297 27 -310 39 -39 33 -124 67 -156 62 -22 -4 -37 -1 -45 9
-7 9 -26 14 -48 12 -28 -1 -45 -11 -74 -42 -20 -23 -40 -49 -43 -58 -3 -10
-11 -18 -19 -18 -16 0 -25 -22 -25 -63 0 -17 -7 -38 -15 -47 -9 -10 -18 -41
-21 -71 -4 -30 -16 -70 -29 -89 -33 -53 -43 -94 -46 -190 -2 -61 11 -159 22
-166 11 -6 11 -8 -1 56 -7 38 -7 57 1 66 15 19 33 18 25 -1 -3 -8 1 -21 9 -29
8 -8 15 -27 15 -42 0 -23 2 -25 16 -13 15 12 16 10 10 -18 -9 -42 1 -60 20
-36 12 16 13 15 14 -16 0 -24 -4 -32 -14 -28 -18 7 -27 -25 -12 -44 18 -23
102 -63 116 -54 7 4 15 4 19 -1 26 -37 114 -74 172 -74 66 0 136 79 153 173 4
21 13 37 21 37 20 0 61 -53 80 -104 22 -56 11 -92 -35 -123 -27 -19 -47 -23
-112 -23 -44 0 -89 -5 -100 -11 -27 -14 -80 1 -128 36 -34 25 -56 33 -45 16 7
-13 -12 -24 -26 -16 -7 5 -5 13 6 25 11 12 14 26 10 40 -7 22 -7 22 -38 -8
-18 -16 -42 -33 -53 -36 -16 -5 -20 -12 -17 -27 6 -21 90 -119 103 -119 4 0
35 -18 69 -41 64 -43 140 -69 203 -69 60 0 138 20 138 36 0 8 -4 14 -9 14 -5
0 -17 8 -26 17 -12 12 -34 16 -80 16 -61 0 -63 1 -69 29 -3 17 -15 32 -28 38
-21 8 -21 9 -3 10 17 2 16 3 -5 11 -17 6 -8 7 30 3 120 -13 211 -14 233 -2 12
6 36 14 52 18 17 4 29 12 28 18 -2 6 6 16 18 22 14 8 18 17 14 31 -5 16 -1 19
24 19 36 0 61 9 61 22 0 5 -4 6 -10 3 -5 -3 -10 1 -10 10 0 8 6 18 14 21 8 3
18 19 21 35 4 16 11 31 16 34 5 4 9 18 9 33 0 21 -2 24 -10 12 -7 -11 -8 -5
-4 20 8 51 12 60 24 60 8 0 9 -12 6 -32 -3 -18 5 0 19 40 14 40 32 84 41 97
14 21 18 23 30 10 24 -23 1 -197 -32 -250 -7 -11 -28 -58 -47 -105 -39 -95
-60 -217 -77 -441 -21 -285 -77 -530 -170 -749 -47 -111 -96 -230 -145 -355
-45 -115 -95 -221 -155 -330 -100 -182 -134 -241 -174 -305 -49 -79 -199 -266
-225 -279 -18 -10 -72 -8 -90 3 -20 13 -41 -2 -41 -28 0 -14 -4 -27 -9 -30 -4
-3 -7 -18 -5 -33 2 -16 1 -20 -2 -10 -6 20 -24 23 -24 4 0 -23 -51 -69 -72
-64 -15 4 -18 2 -14 -10 4 -10 2 -13 -8 -10 -15 6 -40 -15 -31 -25 7 -7 -16
-58 -25 -58 -4 0 -10 9 -13 20 -8 32 -26 23 -33 -17 -10 -54 -11 -55 -51 -28
-20 14 -42 25 -49 25 -8 0 -22 9 -31 20 -10 11 -24 20 -32 20 -11 0 -10 -4 5
-14 31 -24 6 -37 -40 -21 -45 16 -53 13 -68 -23 l-10 -27 -10 28 c-12 33 -27
34 -61 3 -28 -26 -42 -24 -26 5 15 28 -12 24 -41 -6 -20 -21 -29 -24 -82 -21
-33 2 -65 9 -71 15 -6 6 -17 11 -24 11 -15 0 -41 20 -92 69 -19 18 -37 28 -39
22 -6 -19 -20 -12 -15 7 6 24 -23 95 -36 88 -5 -4 -7 -21 -4 -40 7 -42 -14
-59 -35 -28 -8 12 -23 22 -33 22 -10 0 -23 9 -29 20 -7 13 -21 20 -40 20 -34
0 -34 -1 -20 34 11 30 4 32 -28 10 -13 -9 -29 -13 -37 -10 -7 2 -16 0 -19 -7
-4 -7 -4 1 -1 16 3 16 0 36 -8 48 -13 17 -16 18 -27 4 -18 -21 -27 -19 -34 10
-4 16 -13 25 -26 25 -11 0 -20 4 -20 8 0 11 -60 32 -96 33 -16 0 -23 3 -16 6
10 4 9 9 -4 24 -9 10 -23 19 -31 19 -9 0 -13 13 -13 40 0 28 -4 40 -14 40 -8
0 -17 6 -19 13 -3 6 -6 3 -6 -8 -1 -14 -4 -16 -12 -8 -8 8 -7 17 5 34 24 36
21 59 -10 59 -14 0 -23 4 -19 9 3 5 0 21 -6 35 -9 20 -9 29 1 41 10 12 9 19
-4 40 -17 26 -21 82 -7 104 10 15 -6 61 -21 61 -5 0 -7 9 -3 20 3 10 0 29 -8
42 -8 13 -18 38 -22 56 -4 18 -13 36 -21 39 -8 3 -14 18 -14 34 0 16 -4 48 -9
71 -16 71 -42 187 -67 298 -43 193 -23 367 52 437 19 18 34 37 34 42 0 13 2
13 57 15 l41 2 -33 -38 c-48 -57 -58 -106 -37 -190 16 -69 29 -80 46 -41 15
32 60 24 64 -11 2 -19 9 -26 25 -26 13 0 40 -20 67 -48 57 -60 70 -83 70 -125
0 -18 7 -42 15 -53 8 -10 15 -28 15 -40 0 -11 4 -24 9 -30 16 -18 21 -89 7
-115 -7 -14 -16 -54 -20 -89 -4 -35 -12 -73 -18 -84 -14 -26 9 -183 29 -190 7
-3 13 -14 13 -25 0 -59 175 -166 318 -195 46 -9 138 -39 205 -67 168 -70 200
-79 292 -85 130 -9 190 28 190 117 0 31 5 53 14 58 29 19 -97 108 -177 126
-18 4 -36 14 -39 23 -3 10 -15 25 -27 35 -20 17 -19 17 52 11 51 -5 72 -3 72
5 0 6 -8 11 -17 11 -10 0 -31 9 -48 20 -16 11 -49 29 -73 40 -23 10 -45 26
-48 34 -3 9 -12 16 -19 16 -7 0 -15 7 -19 15 -3 8 -9 15 -13 14 -20 -3 -34 2
-28 11 3 6 -2 10 -13 10 -10 0 -27 12 -38 28 -38 51 -38 52 -2 45 18 -3 39
-10 45 -16 7 -5 19 -7 27 -4 8 3 17 0 19 -7 3 -8 30 -16 64 -20 58 -6 73 -9
168 -27 28 -6 77 -12 110 -15 65 -5 179 -30 208 -45 11 -7 34 -5 69 6 65 19
127 19 154 1 12 -8 29 -35 38 -61 10 -25 21 -43 25 -41 4 3 8 35 9 72 2 36 9
78 16 93 27 53 29 88 5 112 l-22 22 -29 -32 c-41 -44 -74 -42 -94 5 -16 38
-90 122 -135 155 -15 10 -51 22 -81 25 -208 21 -215 23 -290 60 -60 30 -74 41
-70 56 2 10 -1 18 -9 18 -7 0 -9 3 -6 6 4 4 12 2 19 -3 20 -16 69 -26 122 -26
27 1 67 -5 89 -13 22 -8 62 -14 89 -14 47 0 50 1 65 38 21 50 44 136 53 197 5
28 11 61 16 74 5 17 4 22 -4 17 -7 -4 -12 -5 -12 -2 0 3 25 23 57 45 46 34 64
41 103 41 34 0 52 5 64 19 23 25 17 55 -11 59 -15 2 -20 8 -16 18 4 10 -2 17
-16 21 -12 3 -24 15 -27 27 -8 30 -56 65 -127 94 -73 29 -101 49 -184 131 -34
33 -66 61 -71 61 -5 0 -15 7 -22 15 -16 19 -57 10 -91 -21 -21 -20 -36 -24
-85 -24 -38 0 -67 6 -80 15 -10 8 -37 19 -59 25 -100 27 -112 42 -89 112 7 20
10 38 8 41 -10 9 -76 -66 -122 -136 -72 -112 -102 -177 -102 -225 0 -23 -12
-75 -26 -115 -14 -39 -29 -88 -33 -107 -4 -19 -13 -45 -19 -57 -17 -31 -15
-92 3 -99 8 -4 13 -10 10 -14 -3 -4 2 -13 10 -20 8 -7 15 -20 15 -29 0 -13 2
-13 9 -2 6 9 11 10 15 2 4 -6 25 -15 48 -21 130 -36 109 -51 -52 -38 -121 9
-219 33 -227 55 -3 7 -16 13 -28 13 -13 0 -26 4 -29 9 -3 5 -23 18 -43 29 -90
47 -108 57 -113 64 -3 4 -31 9 -63 10 -31 2 -57 6 -57 11 0 4 -5 6 -11 5 -6
-2 -16 4 -21 13 -17 25 17 98 70 153 36 38 43 49 31 56 -11 7 -11 12 -1 22 6
6 12 8 12 4 0 -5 9 3 20 16 10 14 34 31 52 38 18 7 46 18 61 25 l28 12 -43 8
c-24 4 -47 7 -51 6 -5 -1 -11 7 -13 17 -6 20 -5 20 -234 101 -41 14 -81 34
-88 44 -7 9 -20 17 -28 17 -8 0 -17 6 -20 14 -3 8 -12 12 -20 9 -8 -3 -14 1
-14 11 0 8 -11 21 -24 28 -28 16 -96 95 -96 113 0 7 -7 18 -15 25 -8 7 -15 23
-15 36 0 13 -3 24 -7 24 -14 0 -53 66 -53 89 0 12 -3 20 -7 18 -5 -3 -9 10 -9
29 -1 19 -3 49 -4 67 -1 17 5 46 14 62 9 17 16 38 16 48 0 10 8 17 20 17 13 0
22 9 26 25 3 14 10 22 15 19 9 -5 13 8 9 39 -4 43 60 107 107 107 9 0 25 8 35
17 29 26 131 28 154 2 9 -10 24 -19 32 -19 7 0 26 -9 41 -19 15 -11 52 -29 82
-41 30 -11 63 -25 74 -30 108 -50 184 -62 385 -62 174 1 225 8 360 55 53 19
76 23 81 15 6 -9 11 -9 22 1 12 10 20 10 36 -1 12 -7 21 -15 21 -18 0 -3 10
-6 21 -7 12 -1 30 -10 40 -19 20 -18 25 -44 9 -44 -5 0 -10 -7 -10 -15 0 -8 5
-15 11 -15 8 0 8 -5 -1 -15 -15 -18 -5 -49 12 -39 8 5 9 2 5 -9 -3 -9 -2 -19
3 -22 16 -10 11 -47 -7 -68 -12 -14 -14 -21 -6 -24 8 -3 10 -21 6 -57 -4 -40
-1 -59 12 -80 13 -20 16 -38 12 -71 -5 -36 -4 -43 8 -39 10 4 15 0 15 -15 0
-25 22 -28 40 -6 7 9 19 14 26 11 8 -3 20 4 27 14 8 11 17 17 21 13 4 -4 4 0
1 9 -4 11 0 18 12 22 10 3 31 25 47 48 26 40 27 48 23 117 -4 57 -2 79 10 98
9 13 13 26 10 30 -4 3 0 18 8 33 8 15 12 30 9 33 -3 3 -1 14 4 24 7 13 7 55 1
123 -13 151 -12 271 2 305 33 82 43 102 58 120 23 27 55 165 41 179 -5 5 -10
41 -10 78 0 37 -3 68 -8 68 -4 0 -18 -7 -30 -16 -31 -22 -52 -3 -52 47 0 40
-26 69 -62 69 -9 0 -24 10 -32 22 -13 18 -17 19 -32 7 -14 -11 -18 -11 -29 4
-7 9 -15 17 -18 17 -7 0 -52 30 -104 69 -39 29 -52 70 -27 88 14 10 15 13 3
13 -8 0 -19 -4 -25 -10 -5 -5 -15 -6 -22 -1 -16 9 -5 41 14 41 7 0 20 12 28
28 13 23 15 24 16 7 1 -19 1 -19 14 -2 7 9 18 17 25 17 6 0 11 8 11 18 1 17
30 64 30 47 0 -5 5 -4 12 3 9 9 6 18 -13 38 -22 24 -23 26 -6 38 9 7 17 21 17
30 0 18 2 19 80 35 98 19 180 22 210 6 34 -17 104 -36 145 -39 20 -1 29 -7 27
-16 -3 -11 0 -11 12 -1 20 17 12 33 -27 51 -27 13 -31 20 -29 44 2 17 9 35 16
40 7 6 23 27 36 48 37 56 138 78 175 38z m1765 -421 c0 -16 -4 -28 -9 -25 -8
5 -3 56 5 56 2 0 4 -14 4 -31z m-1300 10 c0 -6 6 -9 13 -6 18 6 47 -11 47 -28
0 -18 -27 -20 -43 -2 -29 31 -39 47 -28 47 6 0 11 -5 11 -11z m1270 -225 c0
-40 -4 -55 -12 -52 -14 5 -23 70 -14 94 12 32 26 11 26 -42z m-250 -61 c0 -35
-17 -53 -26 -29 -3 9 -3 33 1 53 8 43 25 28 25 -24z m-2780 -509 c0 -8 -4 -14
-10 -14 -5 0 -10 9 -10 21 0 11 5 17 10 14 6 -3 10 -13 10 -21z m130 -6 c0
-10 3 -9 9 1 7 10 12 10 30 -5 11 -10 21 -24 21 -32 0 -7 7 -15 15 -18 8 -4
15 -16 15 -28 0 -12 5 -27 12 -34 15 -15 -9 -35 -72 -57 -58 -21 -204 -32
-214 -16 -4 7 0 11 12 11 30 0 116 90 137 143 18 45 35 61 35 35z m-464 -86
c-4 -3 -14 2 -24 12 -16 18 -16 18 6 6 13 -6 21 -14 18 -18z m2079 -131 c-3
-5 -1 -12 5 -16 5 -3 10 -1 10 4 0 46 122 -73 139 -135 16 -58 14 -61 -18 -17
-16 22 -50 57 -76 79 -26 21 -42 40 -36 42 24 8 9 21 -18 16 -26 -6 -29 -4
-24 15 3 11 10 21 15 21 5 0 7 -4 3 -9z m-125 -170 c0 -11 -4 -23 -10 -26 -6
-4 -10 5 -10 19 0 14 5 26 10 26 6 0 10 -9 10 -19z m-244 -64 c6 -40 4 -47
-10 -47 -9 0 -19 7 -22 15 -3 8 -15 17 -26 20 -29 10 -21 61 10 58 12 -2 22 3
22 9 0 30 20 -12 26 -55z m1663 -61 c53 -114 70 -161 97 -266 23 -91 25 -119
21 -205 -3 -55 -10 -111 -15 -125 -9 -24 -10 -23 -22 20 -7 25 -28 95 -47 155
-21 68 -37 146 -43 205 -9 97 -21 167 -40 230 -27 94 4 85 49 -14z m-2432 -88
c-3 -8 -6 -5 -6 6 -1 11 2 17 5 13 3 -3 4 -12 1 -19z m823 -32 c0 -11 -19 -15
-25 -6 -3 5 1 10 9 10 9 0 16 -2 16 -4z m-333 -802 c-3 -3 -12 -4 -19 -1 -8 3
-5 6 6 6 11 1 17 -2 13 -5z m1758 -293 c-3 -6 -11 -11 -16 -11 -5 0 -4 6 3 14
14 16 24 13 13 -3z m-2660 -31 c3 -5 -3 -10 -14 -10 -12 0 -21 5 -21 10 0 6 6
10 14 10 8 0 18 -4 21 -10z m2639 -23 c5 -19 3 -26 -6 -25 -8 2 -15 -9 -17
-27 -3 -27 -4 -28 -12 -10 -7 16 -8 14 -5 -10 2 -16 0 -37 -4 -46 -5 -9 -19
-52 -30 -95 -22 -84 -53 -139 -107 -191 -51 -50 -80 -66 -107 -59 -14 3 -27 2
-30 -3 -3 -5 -18 -12 -33 -16 -16 -3 -41 -17 -58 -29 -37 -28 -119 -76 -130
-76 -4 0 17 24 46 53 30 29 78 78 107 109 30 31 70 64 90 73 106 49 126 60
158 93 19 19 34 43 34 54 0 10 5 18 12 18 9 0 9 3 0 12 -17 17 -15 63 3 78 8
7 15 18 15 25 0 7 7 19 17 26 9 8 22 29 30 48 16 37 17 37 27 -2z m-2464 -48
c0 -4 -13 -2 -29 4 -17 6 -28 14 -25 19 5 8 54 -12 54 -23z m37 15 c-3 -3 -12
-4 -19 -1 -8 3 -5 6 6 6 11 1 17 -2 13 -5z m10 -30 c-3 -3 -12 -4 -19 -1 -8 3
-5 6 6 6 11 1 17 -2 13 -5z m40 -20 c-3 -3 -12 -4 -19 -1 -8 3 -5 6 6 6 11 1
17 -2 13 -5z m-242 -139 c72 -12 75 -14 75 -51 0 -47 -20 -52 -83 -23 -69 31
-92 54 -75 74 7 7 20 12 28 10 8 -2 33 -7 55 -10z m177 -42 c18 -14 77 -33
104 -33 12 0 31 -10 41 -23 11 -14 34 -26 57 -30 21 -3 46 -13 56 -22 9 -8 28
-15 43 -15 30 0 59 -26 55 -49 -2 -11 -16 -17 -51 -19 -26 -2 -47 1 -47 5 0 4
-11 9 -25 9 -14 1 -33 5 -43 9 -9 4 -32 9 -50 11 -28 3 -144 51 -202 83 -17
10 -15 57 2 78 11 14 39 12 60 -4z m455 -165 c4 -7 9 -21 10 -32 3 -17 -1 -18
-39 -12 -50 8 -50 8 -42 29 9 25 58 35 71 15z m1663 -83 c0 -8 -1 -15 -3 -15
-1 0 -17 -4 -34 -9 l-32 -9 15 24 c18 26 54 33 54 9z m-2509 -938 c-10 -9 -11
-8 -5 6 3 10 9 15 12 12 3 -3 0 -11 -7 -18z m599 -67 c0 -5 -5 -10 -11 -10 -5
0 -7 5 -4 10 3 6 8 10 11 10 2 0 4 -4 4 -10z"/>
<path d="M6428 6423 c7 -3 16 -2 19 1 4 3 -2 6 -13 5 -11 0 -14 -3 -6 -6z"/>
<path d="M6860 6400 c0 -5 5 -10 11 -10 5 0 7 5 4 10 -3 6 -8 10 -11 10 -2 0
-4 -4 -4 -10z"/>
<path d="M7330 6096 c0 -2 11 -6 25 -8 14 -3 25 -1 25 3 0 5 -11 9 -25 9 -14
0 -25 -2 -25 -4z"/>
<path d="M6551 5064 c0 -11 3 -14 6 -6 3 7 2 16 -1 19 -3 4 -6 -2 -5 -13z"/>
<path d="M5890 5050 c0 -5 5 -10 11 -10 5 0 7 5 4 10 -3 6 -8 10 -11 10 -2 0
-4 -4 -4 -10z"/>
<path d="M6522 3993 c-12 -2 -20 -9 -17 -14 9 -14 45 -11 61 6 14 13 13 15 -3
14 -10 -1 -28 -4 -41 -6z"/>
<path d="M6468 2504 c-9 -8 3 -44 13 -38 11 7 12 44 1 44 -5 0 -11 -3 -14 -6z"/>
<path d="M8130 3555 c0 -14 4 -25 9 -25 5 0 11 11 13 25 4 17 1 25 -8 25 -8 0
-14 -11 -14 -25z"/>
</g>
</svg>
